<svg id="svg" version="1.1" xmlns="http://www.w3.org/2000/svg" xmlns:xlink="http://www.w3.org/1999/xlink" width="400" height="400" viewBox="0, 0, 400,400"><g id="svgg"><path id="path0" d="M301.300 10.426 C 273.618 14.026,257.378 44.470,269.606 69.845 C 271.783 74.364,280.400 85.254,280.400 83.487 C 280.400 83.330,281.522 84.028,282.894 85.038 C 300.113 97.714,325.539 94.286,339.010 77.472 C 350.350 63.318,351.044 42.415,340.657 27.859 C 339.692 26.507,338.873 25.220,338.838 25.000 C 338.720 24.270,335.044 20.769,331.874 18.366 C 323.384 11.934,312.149 9.016,301.300 10.426 M239.802 104.500 C 239.248 106.098,191.555 261.447,190.976 263.537 C 190.590 264.932,190.032 266.166,189.737 266.280 C 189.299 266.448,189.200 269.656,189.200 283.643 L 189.200 300.800 206.200 300.800 L 223.200 300.800 223.200 299.800 C 223.200 299.250,223.391 298.800,223.624 298.800 C 223.857 298.800,223.924 298.600,223.772 298.355 C 223.621 298.111,223.664 297.796,223.868 297.655 C 224.071 297.515,224.838 295.420,225.571 293.000 C 226.305 290.580,227.090 288.150,227.317 287.600 C 227.543 287.050,227.692 286.375,227.647 286.100 C 227.602 285.825,227.753 285.600,227.982 285.600 C 228.212 285.600,228.400 285.310,228.400 284.957 C 228.400 283.948,231.688 273.428,232.086 273.163 C 232.282 273.033,232.404 272.763,232.358 272.563 C 232.311 272.364,232.389 271.930,232.530 271.600 C 232.794 270.985,234.579 264.985,235.296 262.300 C 235.517 261.475,235.866 260.800,236.072 260.800 C 236.278 260.800,236.331 260.612,236.189 260.382 C 236.047 260.153,236.120 259.738,236.351 259.460 C 236.581 259.182,237.026 257.974,237.339 256.777 C 238.354 252.898,240.084 247.411,240.430 246.979 C 240.615 246.748,241.510 243.958,242.419 240.779 C 243.328 237.601,244.214 234.820,244.389 234.600 C 244.719 234.185,246.470 228.611,247.461 224.823 C 247.774 223.626,248.225 222.411,248.464 222.123 C 248.703 221.835,248.764 221.600,248.600 221.600 C 248.436 221.600,248.479 221.375,248.696 221.100 C 248.912 220.825,249.756 218.350,250.570 215.600 C 251.384 212.850,252.158 210.330,252.290 210.000 C 252.423 209.670,252.562 209.310,252.600 209.200 C 252.638 209.090,252.786 208.730,252.928 208.400 C 253.071 208.070,253.919 205.370,254.812 202.400 C 255.706 199.430,256.608 196.640,256.816 196.200 C 257.024 195.760,257.935 192.970,258.839 190.000 C 259.743 187.030,260.629 184.420,260.806 184.200 C 260.984 183.980,261.763 181.548,262.538 178.795 C 263.313 176.042,264.168 173.252,264.438 172.595 C 264.708 171.938,264.894 171.246,264.851 171.058 C 264.807 170.870,264.927 170.510,265.116 170.258 C 265.305 170.006,265.783 168.630,266.178 167.200 C 266.572 165.770,267.131 163.790,267.420 162.800 C 267.708 161.810,268.061 160.415,268.204 159.700 C 268.347 158.985,268.640 158.400,268.855 158.400 C 269.071 158.400,269.131 158.212,268.989 157.982 C 268.847 157.753,268.895 157.348,269.095 157.082 C 269.296 156.817,269.786 155.430,270.186 154.000 C 272.092 147.180,272.514 145.971,272.945 146.115 C 273.283 146.228,273.426 175.418,273.501 260.133 L 273.601 374.000 296.201 374.000 L 318.800 374.000 318.800 239.000 L 318.800 104.000 279.387 104.000 C 248.216 104.000,239.939 104.105,239.802 104.500 " stroke="none" fill="#3cdc9c" fill-rule="evenodd"></path><path id="path1" d="M339.028 25.200 C 339.215 25.530,340.137 26.899,341.075 28.243 C 355.324 48.638,347.565 77.942,325.045 88.794 C 311.961 95.099,295.366 93.925,283.850 85.880 C 280.189 83.323,280.017 83.293,282.200 85.593 C 295.951 100.077,318.588 102.543,335.400 91.389 C 354.923 78.437,359.683 51.027,345.680 32.200 C 343.567 29.360,338.157 23.666,339.028 25.200 M318.800 241.600 L 318.800 374.000 301.000 374.000 L 283.200 374.000 283.200 376.600 L 283.200 379.200 305.800 379.200 L 328.400 379.200 328.400 244.200 L 328.400 109.200 323.600 109.200 L 318.800 109.200 318.800 241.600 M272.402 147.496 C 272.147 148.323,271.833 149.270,271.704 149.600 C 271.575 149.930,271.438 150.290,271.400 150.400 C 271.362 150.510,271.219 150.870,271.082 151.200 C 270.945 151.530,270.190 154.140,269.404 157.000 C 268.618 159.860,267.861 162.470,267.722 162.800 C 267.583 163.130,267.438 163.490,267.400 163.600 C 267.362 163.710,267.224 164.070,267.093 164.400 C 266.840 165.038,265.854 168.500,264.986 171.800 C 264.696 172.900,264.236 174.340,263.963 175.000 C 263.690 175.660,263.437 176.290,263.400 176.400 C 263.363 176.510,263.123 177.107,262.866 177.726 C 262.610 178.345,262.400 179.052,262.400 179.297 C 262.400 179.970,259.565 188.941,259.207 189.400 C 259.035 189.620,258.142 192.405,257.222 195.590 C 256.302 198.774,255.402 201.564,255.223 201.790 C 255.043 202.015,254.136 204.810,253.207 208.000 C 252.278 211.190,251.404 213.980,251.265 214.200 C 251.126 214.420,251.002 214.690,250.990 214.800 C 250.978 214.910,250.584 216.170,250.114 217.600 C 249.645 219.030,247.885 224.520,246.202 229.800 C 244.520 235.080,242.995 239.760,242.814 240.200 C 242.632 240.640,241.279 244.780,239.807 249.400 C 237.121 257.830,234.733 265.206,231.196 276.000 C 229.637 280.759,223.941 298.463,223.378 300.300 C 223.260 300.685,220.474 300.800,211.213 300.800 L 199.200 300.800 199.200 303.604 L 199.200 306.409 216.040 306.304 L 232.881 306.200 233.489 304.400 C 234.184 302.346,241.672 279.257,251.327 249.400 C 254.956 238.180,259.852 223.070,262.209 215.823 C 264.565 208.576,266.535 202.456,266.585 202.223 C 266.636 201.990,266.885 201.293,267.139 200.674 C 267.392 200.055,267.600 199.437,267.600 199.301 C 267.600 199.165,268.950 194.944,270.600 189.922 L 273.600 180.790 273.600 163.618 C 273.600 146.843,273.406 144.232,272.402 147.496 " stroke="none" fill="#2ca474" fill-rule="evenodd"></path><path id="path2" d="M109.357 27.719 C 119.883 42.469,119.192 63.469,107.718 77.584 C 94.480 93.868,70.445 97.697,53.284 86.256 C 48.785 83.257,48.762 83.255,51.600 86.165 C 68.917 103.926,98.957 101.931,114.088 82.016 C 124.814 67.898,125.096 46.116,114.727 32.663 C 110.223 26.819,105.827 22.772,109.357 27.719 M140.558 109.886 C 141.538 113.060,156.071 160.437,157.648 165.600 C 158.757 169.230,160.181 173.820,160.813 175.800 C 161.444 177.780,163.327 183.900,164.997 189.400 C 166.668 194.900,168.736 201.650,169.593 204.400 C 170.450 207.150,171.696 211.200,172.360 213.400 C 173.500 217.173,175.131 222.491,179.293 236.000 C 180.276 239.190,182.035 244.950,183.203 248.800 C 189.330 269.004,189.336 269.013,191.503 261.800 C 192.231 259.380,192.914 256.770,193.022 256.000 C 193.173 254.921,188.086 237.936,170.860 182.000 L 148.500 109.400 144.419 109.286 C 140.656 109.180,140.354 109.227,140.558 109.886 M105.467 146.267 C 105.320 146.413,105.200 197.713,105.200 260.267 L 105.200 374.000 87.400 374.000 L 69.600 374.000 69.600 376.600 L 69.600 379.200 92.200 379.200 L 114.800 379.200 114.800 277.071 C 114.800 191.140,114.712 174.662,114.246 173.171 C 113.941 172.197,113.369 170.230,112.975 168.800 C 112.582 167.370,112.105 165.994,111.916 165.742 C 111.727 165.490,111.607 165.130,111.651 164.942 C 111.694 164.754,111.537 164.138,111.302 163.572 C 111.067 163.007,110.300 160.397,109.597 157.772 C 108.894 155.148,108.131 152.771,107.902 152.490 C 107.673 152.210,107.600 151.867,107.740 151.727 C 107.879 151.588,107.832 151.277,107.634 151.037 C 107.437 150.797,106.976 149.565,106.609 148.300 C 105.908 145.878,105.889 145.844,105.467 146.267 M163.600 301.122 C 163.600 301.300,163.977 302.560,164.437 303.922 L 165.273 306.400 182.237 306.400 L 199.200 306.400 199.200 303.600 L 199.200 300.800 181.400 300.800 C 171.610 300.800,163.600 300.945,163.600 301.122 " stroke="none" fill="#3cc4bc" fill-rule="evenodd"></path><path id="path3" d="M71.200 10.259 C 32.355 16.093,20.230 64.257,52.238 85.583 C 80.293 104.276,116.600 85.106,116.600 51.600 C 116.600 26.621,94.748 6.722,71.200 10.259 M60.000 239.000 L 60.000 374.000 82.600 374.000 L 105.200 374.000 105.200 260.224 C 105.200 190.927,105.345 146.358,105.570 146.218 C 105.774 146.093,106.241 147.027,106.608 148.295 C 106.975 149.563,107.437 150.797,107.634 151.037 C 107.832 151.277,107.879 151.588,107.740 151.727 C 107.600 151.867,107.673 152.210,107.902 152.490 C 108.131 152.771,108.894 155.148,109.597 157.772 C 110.300 160.397,111.067 163.007,111.302 163.572 C 111.537 164.138,111.694 164.754,111.651 164.942 C 111.607 165.130,111.727 165.490,111.916 165.742 C 112.105 165.994,112.583 167.370,112.979 168.800 C 114.238 173.351,116.773 181.523,119.867 191.000 C 124.675 205.730,126.468 211.253,134.147 235.000 C 135.357 238.740,137.313 244.770,138.494 248.400 C 139.675 252.030,143.962 265.301,148.021 277.892 L 155.400 300.783 172.300 300.792 L 189.200 300.800 189.200 283.680 C 189.200 274.264,189.045 266.389,188.855 266.180 C 188.489 265.776,186.742 260.382,182.774 247.400 C 179.903 238.008,178.231 232.556,175.538 223.800 C 174.455 220.280,173.025 215.600,172.360 213.400 C 171.696 211.200,170.450 207.150,169.593 204.400 C 168.736 201.650,166.668 194.900,164.997 189.400 C 163.327 183.900,161.444 177.780,160.813 175.800 C 160.181 173.820,158.758 169.230,157.649 165.600 C 154.278 154.564,139.591 106.688,139.151 105.300 L 138.738 104.000 99.369 104.000 L 60.000 104.000 60.000 239.000 " stroke="none" fill="#4cfcf4" fill-rule="evenodd"></path><path id="path4" d="M348.144 51.600 C 348.144 53.690,348.212 54.545,348.294 53.500 C 348.376 52.455,348.376 50.745,348.294 49.700 C 348.212 48.655,348.144 49.510,348.144 51.600 M268.200 159.600 C 268.048 160.291,268.014 160.947,268.124 161.057 C 268.234 161.167,268.448 160.691,268.600 160.000 C 268.752 159.309,268.786 158.653,268.676 158.543 C 268.566 158.433,268.352 158.909,268.200 159.600 M264.594 172.100 C 263.577 174.914,263.228 176.127,263.531 175.796 C 263.963 175.324,265.234 171.600,264.963 171.600 C 264.860 171.600,264.694 171.825,264.594 172.100 M260.677 184.300 C 260.275 185.008,259.133 188.866,259.281 189.015 C 259.371 189.104,259.823 188.013,260.286 186.589 C 261.032 184.292,261.184 183.408,260.677 184.300 M256.622 196.500 C 256.537 196.775,256.183 197.887,255.834 198.971 C 255.167 201.045,255.004 202.413,255.599 200.936 C 256.224 199.386,257.162 196.000,256.966 196.000 C 256.861 196.000,256.706 196.225,256.622 196.500 M252.218 210.100 C 251.317 212.969,251.154 213.687,251.360 213.893 C 251.492 214.025,251.602 213.968,251.604 213.767 C 251.607 213.565,251.868 212.545,252.185 211.500 C 252.502 210.455,252.675 209.600,252.568 209.600 C 252.462 209.600,252.304 209.825,252.218 210.100 M247.961 223.100 C 247.730 223.705,247.463 224.740,247.367 225.400 C 247.177 226.707,247.371 226.314,248.207 223.700 C 248.809 221.819,248.623 221.364,247.961 223.100 M243.993 235.418 C 243.484 236.756,243.034 238.654,243.286 238.400 C 243.594 238.089,244.775 234.400,244.566 234.400 C 244.464 234.400,244.206 234.858,243.993 235.418 M239.993 247.818 C 239.484 249.156,239.034 251.054,239.286 250.800 C 239.594 250.489,240.775 246.800,240.566 246.800 C 240.464 246.800,240.206 247.258,239.993 247.818 M235.429 261.829 C 235.281 262.415,235.238 262.972,235.332 263.066 C 235.427 263.160,235.624 262.758,235.771 262.171 C 235.919 261.585,235.962 261.028,235.868 260.934 C 235.773 260.840,235.576 261.242,235.429 261.829 M231.429 274.229 C 231.281 274.815,231.238 275.372,231.332 275.466 C 231.427 275.560,231.624 275.158,231.771 274.571 C 231.919 273.985,231.962 273.428,231.868 273.334 C 231.773 273.240,231.576 273.642,231.429 274.229 " stroke="none" fill="#34cc93" fill-rule="evenodd"></path></g></svg>